<svg xmlns="http://www.w3.org/2000/svg" width="21" height="24" viewBox="0 0 21 24"><g><g><path fill="#ff4800" d="M19.604 18.154c.427.559.612 1.184.539 1.803-.073.616-.394 1.178-.932 1.635-.234.197-.471.385-.703.563-.339.264-.662.512-.95.793-.005.012-.016.016-.021.024-.83.732-1.814 1.022-2.926.882-.096-.013-.202-.033-.302-.048-1.64-.319-3.042-1.15-4.085-1.833-2.727-1.821-5.021-4.2-6.821-7.076C1.92 12.511.995 10.348.473 8.07.26 7.138.007 5.732.295 4.29a3.684 3.684 0 0 1 1.32-2.184L3.455.604l.011-.01C4.005.179 4.603-.004 5.191.07c.587.075 1.116.4 1.526.94.278.336.543.695.796 1.044.126.176.26.355.392.528l1.153 1.53c.887 1.17.726 2.525-.41 3.445-.15.122-.302.252-.454.373-.401.33-.813.672-1.252.994.214.71.54 1.428 1.048 2.287 1.055 1.74 2.206 3.127 3.52 4.241.13.113.283.216.446.33.112.077.23.16.347.245l1.708-1.375c.547-.447 1.146-.633 1.738-.56.598.075 1.13.418 1.537.978zm-1.036.825l-2.328-3.087-.009-.007c-.13-.19-.352-.416-.65-.457-.304-.033-.588.137-.772.285l-1.85 1.495c-.091.074-.372.306-.772.252a1.024 1.024 0 0 1-.462-.187c-.018-.01-.036-.028-.054-.04a5.932 5.932 0 0 0-.445-.324 7.225 7.225 0 0 1-.553-.41c-1.426-1.207-2.67-2.706-3.799-4.575l-.004-.005c-.618-1.053-1.004-1.92-1.244-2.822l-.01-.047c-.053-.294-.08-.724.385-1.103.006-.01.017-.012.027-.017.466-.337.898-.688 1.354-1.062.156-.122.308-.25.465-.382.573-.459.63-.948.183-1.542L6.876 3.42c-.134-.185-.27-.366-.4-.544a21.46 21.46 0 0 0-.76-1c-.005-.01-.01-.012-.013-.02-.136-.18-.359-.4-.662-.44-.246-.028-.511.063-.774.263L2.423 3.17c-.45.363-.723.82-.84 1.398-.181.904-.132 1.886.169 3.19.486 2.126 1.36 4.158 2.758 6.417 1.698 2.707 3.861 4.952 6.426 6.663.938.622 2.199 1.367 3.618 1.644.071.013.149.023.22.035.752.092 1.355-.085 1.906-.566.341-.325.698-.607 1.048-.876.232-.183.447-.351.66-.534-.006.004-.006 0 0 0 .553-.467.615-.99.18-1.561z"/></g></g></svg>